<mxfile host="app.diagrams.net" agent="Mozilla/5.0 (Windows NT 10.0; Win64; x64) AppleWebKit/537.36 (KHTML, like Gecko) Chrome/129.0.0.0 Safari/537.36 Edg/129.0.0.0" version="24.7.17">
  <diagram name="第 1 页" id="MtWxdjMPb7-ViZUjTbYU">
    <mxGraphModel dx="1426" dy="789" grid="1" gridSize="10" guides="1" tooltips="1" connect="1" arrows="1" fold="1" page="1" pageScale="1" pageWidth="827" pageHeight="1169" math="0" shadow="0">
      <root>
        <mxCell id="0" />
        <mxCell id="1" parent="0" />
        <mxCell id="ErYXgo1s0IxYYHn3WTls-1" value="" style="shape=image;verticalLabelPosition=bottom;labelBackgroundColor=default;verticalAlign=top;aspect=fixed;imageAspect=0;image=data:image/png,iVBORw0KGgoAAAANSUhEUgAAAM8AAAJHCAYAAAA3/QLDAAAAAXNSR0IArs4c6QAAAARnQU1BAACxjwv8YQUAAAAJcEhZcwAADsMAAA7DAcdvqGQAAEBMSURBVHhe7Z1faCNbfud/bZKXaDEj4oDS0CxYhFhho5dRDDs0O4ofzA5jdq196aQfNnBtCIZNmzRmsuxAYwzLksH00D2wvgH7wr7cTL9EXuiQxQ8eTejMg6NhQcmiDkEmwXBXEAUPXpSXPPT+fudP1alSVUk6lm3J/n4u4koqVZ0j9/nW73eO6vetR4VC4RMBAMZmzvwfADAmEA8AnkA8AHgC8QDgyaNmsxlZMOgcr9H2oXlxI2zQm/c1KppXmj41Xz+j3VPzMovNN/R+5ZL2n+9Sw7yVinx2vZj6naqv3tHOcpfqa9t0ZN4DYFTmmq/XaG3NPupE6+/p/dsNs/mm6PCAddp93abSy/f07lXVbJ8gV30qrOzS4JE3qLacM88BGJ9Y2nZE2yygzuIq7a7Ia4kS72j3FZ/B34eDe+MtC4xfq8eXZmDKWd4RnZzVg23mdao4Tnfp2esm0XKNW9QktaGOyZGE5iu0w++/2Uz/bECvTSxNqqrvE1J9tUqFsybLOEQd3x7n/ZugL8Tieyev5Tua7e53Sd1PUPuabdy3jdjfwe17+H7y3x1MFwlzniNqneeo9NT+g+WostBSEeLZniRKG1Smuoka+9SkCm3JP+5hi0VXDgZOcUGSsbxJz6pUXSJqf8hItE4b1L4qUlkJIrmNxt4zWjvm4X7VpH3eplOxlP4EXHA62KXKujukJepIfy7Ma4H7uNBWx5Vj1c+LVItEYH5d1n+HNSX0LXOCydqPRfCyRG0b3bm/q060E9HVnL63l3aCE8Lg3x1MG4kLBp1e3zwTeD5y7M4IODq9sK8b1PhoP9uhS3fw84Bq9+zrIsuoTY3MOU2DLnrmaWobSYzwWSVsG02ZzTIVz09ic6wG7b4I51FHLTcmCZxq2naU0HOUX5QX6ftJdIu0wxH24Mz2Tws4/NvqvhceW+HH/+5g2kgUT3EhR92v0s92bpqyE5xJnX98HpyFjzyoeCDZ18XeRTDAkqnSk4U+XZ6bV4ltJDP8s0dUPyMTTassokLywHTSMpUepuIKncnYr9+Li9CFowvP9ey+0vfcQla7YJoYFA/n6KuLHWqlrLjJQN1ZODGpxhrtB2dSHlIf2kRLVdp4bFK080vzukCd1pCz6GaNEy4dnbLaiDPqZxt7J9SVOZW004tHHUYEIKt45jgqPRyFIfvFxSAnppDYwok8gigKpp2oeGRy+7JC3eP0pVv5xw/PpjKXcQbD6QV150u0yvObCxmckt7wZH11qZsqRoUMwHWOBoc6/clsI8bon5W5HM9HZOk6QchVFjg50XGjPFoEyNpPTiZ9N11UJybz3Pbnxlc2wU0x56YN71/m6YTPflm/8xy9qPMZfMfss0X5yPxILzbkei0jPknlJDm5jKxq8ZCnmm1THurMHf7Ok9nGYV0tCtjVtuz+RDk6blL/qkn1hO/X2Dug5kLNHOc9lWM9TiNzP1lFPO6GqRn398SJjEcv9iP7vpcVttiqIJhecFX1LSNL0+XWTf8QDW6DxAUDcENwelrLmE+C2QKR5yYxc8hwFjbGZUhg6oF4APAEaRsAnkA8AHgC8QDgCcQDgCcQDwCeQDwAeALxAOAJxAOAJ6niCWpkbFlzUE78jnb/kzwfchGj+vxsXego152h5BmMStQ9R8qblSuN1NCv0qVzKYkMrNXe/syUBKs6H6cwrn82vO+z9h3B3RJ1z4nYOXV1TY5DVnXp9FCl3S/f085S6Csgj5OF0FwEgEnw6PPnhU+RCxVjFzP2z/6U2kvfpsq8eUOi0yHRlqr9sUVzUS825ZN2LsdJ+4xzgaRqjz93TKpQTW2NRYlIFJH2T/O0E/Nus1HjgLZ0ZWlqRWa0r25b8cgz0O4oXnHgwTA455ECLrGfMiXCz/YOaPe5uMJoUUSjk6AHI8k2Ocu/btKl2RIi0cD9jPi0uRZNac40ZgA7UaT+kd8UQ495105qg8qLHTrZ488v5bJLvjfLkb66bbkktguAQ6SS1GuyrJxo6mFxF4tvN16vovwJnApO5T5ToCfBoE1zppGyagrKs4WjPXmuK1b1ZxjVB1u9GpqIJHK47fRV2jLPI6S1C0BIZM7jM1GWGv5shxiDMSrUQt3hNNAZ/BFcZ5oi5ecH516CWDwVyzp2iW9AGG3SjmvRc6KwH+btCOntAmCZyO88I9klcXSyIrWP0UqR3QjlIF4GC2KyqFM2XZ2p7a+sqAYR4exQ/tT2YZ+aiZFHSGkXAMO1xaMdYmqh0+UKp232uUWZDjqfGRmdnlU2QwvdjVf2uQilQOW3ZSqc1U3KJoYcJ6qtuN/2xluZY0lEcdK6lSqVEiNPVrsAaKLuOXGf5VEwPtMFMYiXY7wscZQx2wKOaNv9jDzintIpHL3gyXovTPlqC6HNkwi3sFiI2fiK33bclUZMN2TVj7dF3Gzy1E2JPFntAiDMdhm2LHNzNDvAEjK4A2b62raN9Qp1OfJBOOAumE3xGG9oucMA/M/AXQH3HAA8mem0DYC7BOIBwBOIBwBPIB4APIF4APAE4gHAE4gHAE8gHgA8SRSPlCPbq5KlojJ+hTIAgMVjrzpWD3Ols1xRPPZdmc0lM2llB0qEPldtAzClZLjneHDVp8JKUqnBBtUcGygA7gOpaVuqn4GUAQTRKhZJem116/jQmENTfbVKhbNm5P7SOhIlHEcdn1+bSCYPty+p+wlu3ziKbvBn3X1VOmq2x99/92qX3pj9Ur45ABHGXDDYoDcvS9S20UrsoiKD7YJ2T7tUWXeHtEQdovaHC/NaqFJ1wXGmOS9SLTKvSnPTydov1rdDolUn2ono5CpstW1tn9pLO5EUM7ecp5ZsQ20QGJFoJemQhQGJIMXzk/CGtMoCKs9D3UGVXK+Gdk7K2cbZR9Gg3RfhIBUzjyhpbjrp+w307XSXDs765oUWcPM4KNZWXgeFx6Hs+04pNwCjEJ3zjLJIIP4AVmzKPDBulHFE9TOi0lMZmFUWUcEZtA5OWvbemB0m47rpMBn7Zbv45MLya36ImeFIxiUApDD27zzisBmITT0Gb40uJhzd5RrPW2pU6cWjDiMCEMdPe4zjEayrhCH7xcVQXHAXKbSJY6Tv464oAuAwlnjEcCOcf2Qh7jM8H+HIkOTeKV5v1AsNNcR3bRSy9tMuPk66uLJLq4F/m+kPfq8CE2S8yCNOOa77jDxSBuTRcZP6V45LqENj7yDiblOOrMOlk7lfvG+bRCfBnIf78yLuqDNbtz8B08e9LsOWJehya1RzRQDGY+w5z8zA86Na4CQKwOS5P5FHfiB1bo0ihu/BbUwAuAHgngOAJ/c3bQPghoF4APAE4gHAE4gHAE8gHgA8gXgA8ATiAcATiAcAT7zFo8qhUbIMHjCPCoXvfnqjitoc5M7VE6t10XegrlCT9hNLnDdI2i+c7Xvdyn4oUgPkFM1JPdLQdmzdEEqyQQZz73jg0rFbJLbPw/zJhCNKn/+rUC3BlkqVT5vnE0cJh5wiuH1q31xr4IHx6PPnhU9ZF09KeiYlyxqpxpS7Spv3F050hFIXZebpRAxBzFk+PMNL5Nki+tilykIrFtEk6pTp8qxAJToII0LkIs+wTRul7PB3o0iknzZyinjESCQliibtE/2+3DqfWLbPuT+RGweb73QoF55Kn1bp8rhNpXXT56u0KAvuE3ONzKuOh7ncuKQ53hg+1Km54FR6Mtq0oxUbZDEXHNehZ7McRkm3DRbJzlLYz0AsyoyklmyjFdunTvpzjb1nurxbBMDvj1YLlKMK9+PAHktuQY+q1XvPXDhw5QxqqyytH9owlxuXNMcbizjWkGNLxcJcch1tNJkOPYfb4WBWbZjn55fUj7v4KI5o29hMyfcKRSTGJEXqOHfSlu/mbwjSp+ahcyypol0sm78huK/MhedkGWhy5qxHi6Il9bGiynS5cYk53hjEGKRjB1WaOYiQ6tAj6ZJ9f4cq8+rTpgSbI5R6P2aEyH3ZfS7fy4jIiQjFdXssfsh3W5jQXO/0grrmKbi/zMXdPSOIcHxcblIRW6oCrb7a4DN/iiUVk+zQo1ft8qf2vX1q2sgjcFTSfYwbMVpERHxiCCKCFMvZY5nHpOYpK0+ocHUZPQmBe8dc5WW6EYavy00W2oGHow61KWm+le7QU6T8fJ8uz83LlSqVbORxcVK46qs30eOIAaN6YlLIzRF/p5JIMh/aCFdfbYVRT8FzHicd3d2sEH3kNsw74H4yt/a6TSXXDUctXevVLV+Xm0w4xTphAbjzjQhxFxx5qFSL08qIO06eujbyuKmlWmyw/W9R3j2OWra2257pib3dxo/AfvewTk2Wt2zT72kjR9v2Fp1Eo55EsV7ZHIfTyV79Zn6zAlMFyrCvjVmqhl/CgwPXtgHgCcQDgCdI2wDwBJEHAE8gHgA8gXgA8ATiAcATiAcATyAeADyBeADwBOIBwBOIBwBP0t1zWuWU4jfjKSBXMvN2VeOfUKqsvQC6jv/Aw0Vu77jauyF3IHBnpLvn2OIyftTP3QI1RwxXfSqsJNXEbFDNMdEA4D4y1D1HSDxzSuQpX1JzoUTaRca8z0jU2aI2dZfz1Ep0vone8jDqWJPmlmP3kffKznF1/+yNe9WxFtrcrwpV5u2xUto2rj/tswJVVPt6W+Op7U+0n6nfIdU9iLRnXVA45343MOsMcc8ZxgUPnq5TRSlI1CFqf7gwrwUpoXYinCrAs14DaQ49sX1UKbbaYTiLImjZRwZqVttCUdleybZ9U/C25b4Oqk2HH2fQPUj7J4SRG8K5TwxxzxkBZe/kWEpJqbPrfiOI2Qcng/WI84019Uhz6NEmIoXHHpYcbvuZbQsdOjERVUrA+/HX1pVnhONkuweB+8Zw95yh6BLl0lM5Ep+d04w95t2SZ0llnMGV4tBz9CLJNsqDrLbHYeTjJLsHgftFtnvOiIilVHe5RhtZdlKygqfEGT7UKl2mQ0/UNirwGBiXtLbHZVLHAfeCTPec0TmilsxVZOm6lRB1jHNn0uAfzaHHTeE6dHlVpLI9FouvlhVFMtoei0kdB9wbMt1zxkG5ZF45c4IInBLyJLrgmgwab7V0hx6ZoIefr5F1pOFodNoJDQt5ki4T8nTS2x4P/+PI34aWJf0cYy4Jph6UYQPgCS7PAcATiAcATyAeADyBeADwBOIBwJNH9J//GqttAHjw6Of+9X+EeADwAGkbAJ5APAB4AvEA4AnEA4AnExHPH/3x/6B//uPPzCsAHgaPPv2///PpO6t/SN83b4R8Rn/1k29S4ac/pF/6vT8z710Xfcwl80rx9z+mn//tL8wLAGaHuZ/Rr9Fn3zWvHH7/B78RHeQT4yv64hu/Qz9vHxAOmFHm/vfffEVL/yqecn1Gn339Z/Sjn/6Tea1R6dlPzOPkD+j3nff/4QffUs9//wcHKoULP3tAJ7+lNmWij/EHHJnCY2e3Zz4rD5UySlRzX4eoPqVsA8CXOfqLP6cf/eJvRAa4ijp//7cUTdY+o28Qp1gqYvyQfsQR678YwQzwL79J3/hrHVm+81Oi3/wsHPhZfO3rX6OfyPFVGpndXvDZb/yYPnJ7//yTX4m8/isbTb/73+h7v/p39B217XfoC/pmIHQArsMcsUT+7G94gP97e0b+Fn3rV4l+9D/j6dQX9OtBiiX7RKNSBJ7H/Pp/1U+//xd/Rz/7F19zUsDH9JmNAvxwB/LPfvrn9Lvm+bD2ws9+QT/5+8HXhYIc91t08s3H9PHH4Zzud//6K/rawi+bVwD4o1bbvv97f8ln61+hP5IX3/039Jv/+Je0+kN5EcVNf7739V8w7w7hh/9AXfNUE53zZC1GeLWXwNK3Q7H+87cfE/3iL40UCQHIwixVf0Ff/PRr9B9+8Bmfqb+WEHX0QP7ewl8Gg/47sfnQpJlce/9EP3obilU9ElcXARiP4HceSa/o69+k36S/oz9LiDpLC79AP+v9X/NKUjv/SDAKk2nPpKQjzrkAGIfwR9If/iH9Cc8V3PmBy+/+9o+p+/XfMunPv6Nf/sebjTyTau/7v7dFX/zjr9H3bNrGj2AxAYBrgJIEADwJIw8AYCwgHgA8gXgA8ATiAcATGIAA4Am8qgHwBGkbAJ5APAB4AvEA4AnEA4AnEA8AnkA8AHgyl35fzQ168/6at3BPw9w6Pu3muNVX73D/TjD1zPWpQrWku1S/WqWk+1JPjKs+FVaShLtBteWceQ7A9PLo8//+7lNloUVrL9z7X0vUKdPlWYFKdGDuQs3wYH/3skJ6aHeovmbvmi2frwVi65/tB/tIFNmxYjiv63Yk8pQvqblQIjp8RrunerMgn9+iNnWX89Syx4+0yy0fr9G2uuu2tLtKl8dtKq2b7bYNIXU/xt0md/H+WKJV57sm9pvZePueVntN7l+Firzf/vPd4Db44GExRx/qPIhXaXfFvMOoqHPeig0KHqgvS9R+vUZra/w4JqrZlG+zTMQDU73/Wm6bvqWPxyLZWWrTvrwvj4hAL1g0Xaqsu8mZRB2i9ocL81pTfZp32pXbyLspXY4q3NaBaqNOncVakA6m7xf7LiyoVTfaxfpdp1okfc0pYfM2COdBM0f8z9/4SM4grlJ1iah57A50K6iTMEoctqgzn9fR5nA7PKOfNqh9ZZ6fX1LffiYJOcaiI1wWYaQNQ2NvO9quearpU/PQDuIjap0TFR7rgZ6238B3Od2lg7O+eVHl/hSpw+9ZYRy1OpRbCL9F/6xuIi54yKjVtsbeCQ/isj4rb9ao0hscwAo+q8tEXz8kTSvQEzXwecB9ad/focq8+rQalM8kQqn3kxYAjqh+RlR6KoNdBm1hQLQaSc/cdtPp9KwIhPT9+r2oBOMU1+1+/FjnPReecA8BCDFL1TKIC7T6aiNjAOu5jEpzgofMV0Q4O5Q/te/tU9NGHoGjknrfTfMcRLjd5RptpIrWzGtsiiWpmdmSTfZ+biQRigtO2ibRLNjPPJCigRjB7zyND22eq/AA5sl6IyHq6O1mLhOhSPn5Pl1yuqRYqVLJRh6X1BROUq0i1fjs3mkliHblCce3Ll3YPklqZ55mkrGffJe+my6u7NLqonlu09jNtCV8ADThj6ScYp2wANxcP4JKwXiC/9JJZ95KInZE2+77m3nq2shjfs9RDzVBt6tzUY6Om9SXFS87b3Lhdg84KurUjx9lWecbgaz94t9lk+gkmPNINHxG9V6Fduy+/Ej7TQo8XFDPY5Al6HLLWcoGYAhh5HnIcISsLXaoBeGAMXiYkSf246leIIj+WAvAMJC2AeAJ0jYAPIF4APAE4gHAE4gHAE8gHgA8gXgA8ATiAcATiAcAT25OPPIr/vt3CVdhA3A/mJx7jlxB7R5LrlxW9T7mNQD3jLtzzwFgxplrf+xQsRwvkBYjji41nRoXhUrFwhoXG5WUz5qUKs/rGhhV+6I+65Rep+wrqP3fbqiyAL0d6R6YfsZ0z6lQ17rkrO1Te2lHCUWKx8SdRiycxHFmsCYmfd+AxZqqp5Ht+2eo5ATTz1xQdjySe07dEUaD5zNJUWuQkfZ1tqsy6SzXHQCmALXaNqp7zoDjjPgSjOgqM9a+pxfUNU8BmFbMUvVo7jlxxxlazFOud5HseRDjOvsCMI0Ev/OM4p7Td9w4Jb1T5oBJjjcxrrMvANNK+CPp6QjuOa+bVAjMALVXWzCPOaxTk6UXrLa5DNsXgBkEZdgAeBJGHgDAWEA8AHgC8QDgCcQDgCcQDwCeQDwAeALxAOAJxAOAJxAPAJ5APAB4AvEA4MnNiQfuOeCe86h5+vmn/cQ7PYt7To0KZ/v0bG+Eqhtxz1m5pORjXQfdD7caSO7KPVKfPBAfhVpwc98Rb3p1Y98dTDMz4p7TobryPpBHnbrLMf+DCaGEQ3XTDj9et4kCIQEQZQbdc6TqtU+Fx07bwXFj+0XaTOuL8z4TKdA73aVdp+Yo0pa6E3jGd4/44VVp90vbN4mk/HzT6UOqdx6YZmbbPYfTpR0WeRCVOFKUXloxSJty+3rbpr2Nfez9Y6KaGbxHLT6RrKcIV9paaqvvJ/vVOUbJCWD4d08iRxVu48AeS25bb8QIZoc5Hvqz5Z7DZ/WtZaL2B+JBXqTOsRUFo6phi1RWouzQ5VWO8rG0S/fFMTg5bFHHtnW4bQQoEcEVkSkbd6psRWgDvgwjw3OpQ+dYx03qWwMWMDOo1bbpd88pUs2mOCpq2El8ny7P1QcCOj2b0rFAn9eJTOl3PMoF6ZdajCjQEysUKRmXiGBE5O5XDMrI+SGp2ojffShwC5pJzFL1tLvnuAsG7urXYGQpLuSo+1VwTqdttY+IKIwkslqnj5V0TIOIiNOxMDrKypu7Dz8mtbq28oQKV5f8LcEsEfzOM3vuOZJu9jkaRBcCVhc71BqYd4QpnP6eW4GQQrhPb6PzrI2yFbxJbUd1MZVIMl+iqmmj+mqLKvP6uYbnPE6avLtZIfrIbZh3wGwQ/kiq5gs8zJy8PoKciafMPUcm6/scMcOULk8n7sKAfZ/bK33c1+2piNKliprXmIearHOa18qr/tv31bL1C300aUtN7J3twfcc+O4SyVlspo0tOqHmlfqkgaNYr2yOs8Npcv3GfrcCNwfcc24dEfUqXY7y4yuYasLIAwAYC4gHAE+QtgHgCSIPAJ5APAB4AvEA4AnEA4AnEA8AnkA8AHgC8QDgCcQDgCe3Lh5Vau1RNanKnVGuDKaIR81mM7zC4Dy8ivjeIk4361KBmnxVt4hUl3Y7FaoAJDAXFnjtU3NB1+Xfe676VFhJimJifJIzzwHI5tHnzwufgkvj5axcbunoIw4wLyukh5JUcuozsTozL7RZaBWqzMv7LSrLJfZnXaos6+IxdVYnfYYPXpuzvKRtqz3ruyaX51tPttAjTZ/9zSA20VC3exJGxkj/dHWorYnRbdSpvVQzRWhh//V3vOT+l4gOo2UB0sYWtam7nKeW/XysnfC7mNKC4zaV1s12N3Kn7ie435v7JiYk9u/OJH1/QX+vJvevQkUxHIFP3J2SMufhf9wUhxnFogw82WZTmxxVFvgfX31WHGh4XiODIXgdtXfSVGn3yxoRDyod+cxAjrnUBIMxgvQv240nt7xq+rhG9fMi1SLzrAtui8UeVHMKEnXEWOTCvNZUn+adv0P8u7guOHXqONWy6fvFvzeffMxJRpHi0mPJKWHzNgjnznHEwwNS5gItOctnOMwI7jYFRw3reyCfHXjtGGwENOiiR4H/WoAYg6Q55xhGcePpnx0EfRSnmwGzDunXomO5tVmOfmdDY287+ncwTzX8PQMXnCNqnYffJ3U/MVihJtWDvh/RNotLY8rTnWreuEtP/6xuTljgrpkLy5H12TAYkFkOMxPi6IWOGNJGcHZVZdIc6VS7SRFLM5Ybj2wzT0N0qXTpqewhgzbN+ERSLPfvkI4494Rk7DfE+OTGXHrARHEWDNycXM5wIzjMXBuxh5Jjx9Iu8U+TNuPposP13Hg0YrnVXa7RRqrdlghASqbt34BTM7MlmyH7xcRQfVwwzwSZ+9n9zAMp2lSSOOdJd5i5KcZL4SbnxiOpFs+HTLo6gFhCUZcurKgktTNPM8naT1K4edcf3F3hG9OlB9wpyQsGqQ4zk0QmzuHxxalGrZbJaphtUy1aJPzeMkE3HuXWeeXOQRy4nQPXnacsa2MjkLkfz3EifS9TK5jzSDTMcOkBUwXKsKcAvUR+APupGePWL88BMVas9zaEM2sg8tw6spgQXX1Lu1QITDcQDwCeIG0DwBOIBwBPIB4APIF4APAE4gHAE4gHAE8gHgA8gXgA8GRi4pHrs+BuAx4S0+OeI1dTr1yauvzBS1gsuJQFTAtT6p5jbwHPD7lcX8wuzGsIB0wLqe45iU4tGY41cXebNAcYIbKNj/2nH0v07aAgLBZdIhHJtuO690i9jxupQhceRaTPjosOANckc84TdWrhATrEsSYgwwFGDX5320ei9t6zSIQZGl0i7j0xN5rXbSq9tN4H0ucMFyAAroEjHh5osXJk16llFMcaTZYDTJWqS+Q4zvC2vfD5yLguN3E3mtMGta+0WclQFyAArkG6e04C4zjWJDvAFCk/79T2T4p5t2x5h9O5HOUXzbZbcAECD5NU95wkRnesyXKAuYHBK3Mqty1+2O9yOy5A4CEy8u88ozvWZDnAiFtNLrJt49U15yDKvNDtV8jtuwCBh8ToP5KO4ViT5QBz9GItsq22YCLXYZ1nLvr98dxi4m40/LCLAtLnG3cBAg+ViZVhyyoaHGDAQ2JCl+fIKlqOul9BOODhcM3II7+xyOoWP73LS3sAuAPgngOAJxNK2wB4eEA8AHgC8QDgCcQDgCcQDwCeQDwAeALxAOAJxAOAJ17ikevY7MWX6jkutgQPkKh7jvUqMC9HQXsKhN4FADwUIsVwUiqwNRXuOQBMP5G0LfQa0IiDzkCNDJOcqslFou+cwjNxtHFrc+S1NuZQ+9vjmvf0/rFaHnG+CbYDMF044olXhm5QmWx5874qVMuOSrqCtPTUfGblCaeBfSo8Nq83y1Q8bym3m+qC455zXqSaEqLs348YilSflogcExIApgnHAGRL2TmFlaFHtB3MY/TAHkbjqy7lllgc/FwN/I9tIvv6ccEIs0G7L6LOOhZV6h0YiminHdwlGkwrwZynLt4C69EEyU2vApPCLAJrJxn4XWrtNahN9jXR5bn5nBgZ2rRNnHUsYhtFJapK6rdS5WdtasCsA0wpQdp29KJOncXVYM4SrKKZ9Gr/bHjkkWjV4jSsvFmkfE9StAZd9MxrKwTrAGqOq8wOA8QLrqtSPx25OOKZLQBMG86ch9M0McswzjbFhZzj0yaRY4TIw3R6PM9ZWaWC2VfSMvXaCEHSN3LsqjbKMTsrjl7dpRrVOHKdwA8BTDHRH0mtgw1P4CUSdZd3THq1xZFklMij5y0078xVRAzzob9BY+9AGcrbtK1MMSNFiV4crYoqcgEwvUxlGbYskZdbw00YAbhLopFnGljZpdUFx3sagCllisSjfyR9L3c1cIzgAZhW4J4DgCfTl7YBMCNAPAB4AvEA4AnEA4AnEA8AnkA8AHgC8QDgCcQDgCde4lF1PnDPAQ+cGXHPcW6iZbnJm2lJzZFTpCd31B56u0jxW3iZp5O1bVwN/kCYIfcc9/b0+6qs4d1N9FUJh6hui/W4rTbFao4AYCJp2+y450jFqdNX9bmwr1FR6X7obYP9G3yfUUYlFm5rL3wV6bv9G4jgXlYoxyKr8fuqfemT8zeL/33kb/vu1Ya+GDapD2DqccTD/7gz6Z7DIuCB2z12IsXSjhGhDNgaUbDtGYsu4f3XbSq9NCIVH4bFlKjGItlZcvpO5nOH23yMJsfGjopYo94RPLe8yvuaPqhb3sNma5aYUfccFgzPSeR41VerLMq6028dlbQIxUOBQgFbNmt8KnBqhsR45KpAT9SZn7+3EaD8XUIRmZPLabTvbqQel/7ZgREzI1W8V+L3YF6DqWeG3HO4f4HQddSwggm9Fgznl4EIj14kCYGZr9CO7cN7WYzIUX7RbBMBPpe/i9nXSVGL63YffkjfA7FfFy10MDsEadv0u+e4CwbREu2Bs/9innKByUhUCMGcSlbrbB8SjqmRfeXvUjbpVLQP6jHm6mQ6VXqy0A9PMGDqceY8s+meo1I9nqOECw3xuZvFSeHMvCayOGGovnoTnbjLXE090XM6+/cZyukFdedNFGWqr7aiS+1MbrkWzHHU9kikBdNO9EfSWXTP4TnIM56sF4J0aofypzaKyMKAff89T+/rZjLPJ4rIPvwwK2ONvRblg/SQH2rZWv9209h7ppbzw3TPWR3kfpzI4ge/p9PDI6qfsdjMsbbohOc0+qOW/tkllc1xdpa7VJ9YFAO3Adxz7gj5jqu9EX58BVNLNPJMA3DPATPCFInHpFhwzwEzAtxzAPBk+tI2AGYEiAcATyAeADyBeADwBOIBwBOIBwBPIB4APIF4APDklsQjJc8oMwb3izl7dbB6RGrubxCp6bmttgC4IWbIPQeA6SKStsVr8hOdYoSIW40xrRjiFmNRx5TyZVMGrethMpxsAJhSHPHEKjDTnGJkoMuVz0HEGs/kTwrKVOm1GCzy/tuHIrIkhxsAppsU9xwjpESnmA5dXrlmGdclxeEGgCkn0z0n2SlGm2KQ2ZbkAzAuqQ43AEwxQdoWd8/JdooRbzN5T0Q0iTlKisMNAFOMM+dx3XNGdYpxUrgR3GKGgxQOzA6PPn9e+BRO0GXyvkOVnr4DgZhU1Jy5TUcZDcrKWC2wPnfvIKC83ow5Yv+szlFE7GRlAUD2WaXL167drb7rQed4ny5XnDsg3OTdDwCYICjDBsCTW7o8B4D7B8QDgCcQDwCeQDwAeALxAOAJxAOAJxAPAJ5APAB4AvEA4AnEA4AnEA8AnniKB244AMA9BwBP4J4DgCeRtC3TPScpTVt0XHTikSTisBOWVye75wAwezjiSXDPkdub2xLs120qvTQ2U4ocVVhMB07UklvQa8Rhp0LdwBEnLK8edM8xuwAwY2S75xw7tlKnu3RyXqRyECn61HRuvHt03KT+YlmJq/pqlYrndUcYDdo97VCxHDUYAWCWyXDP6dPluXlq6PT66f4C4mFgngr9HkcXl/NL6iv3HQDuB0HaNuieM+jNVlzIUferlJu8rzyhwtUlWcm4cyfFYp5yvYsgUgEw6zhznrh7Tp+K684cZ2WXVhc71ApSMTdScZq3WSH6yPvxq8aHNqdwNWcxIDafAuAekOme47rhiM1UPbDWNW44Zyy2ZRNh4q43str2ssIS02jnHfPCtqPcc7BoAGYTuOcA4Inn5TkAAIgHAE8gHgA8gXgA8ATiAcATiAcATyAeADyBeADwBOIBwBOIBwBPIB4APJlt8ahSb7e6NYoq+Q6qWwGYLN7uOXK/0sne9l2u1Hb64jzgcwCmkSlyz7G3p+eH43Egr1GyAKaRSNo2mnuO1OLou2Tnlnf4fZs2RSNHGJWMQeKrN/r9t28HUq2h6VXMiWcgEokPnN2ecZzI90E6B66JI55YtWeqe06Ddp+L54G+jfyaLZDbLBNZt5zXTaLlrUhJd2WhpbY9e/En1L5yjUSqVF0iah6nV5lWn+apbSMkR6VIhSsVqVbWxxaXnuZCLTmdlO+z1A6iWZ1SPgfAiFzDPSfG4XaYXp02WCDmuaLviEOXeAdGIitVKlGbGkE16yCNvW0Kql0PW4FPgqZD9aCCVbv05JZYkOYdjfk+/B0Ct59YlAVgXCbnniMDlNM5LURdYp2GeByQGeDVp6XA+yAdNyWscazJQFx6zNM4xXV7DH6I8SLcfMA1CNK267nniHB2KH9qUitJnyKRJ4ZEsV6Jqhx1JGVrf8iSjvFLCBY2uJ9mSyKpLj0c/ZzFEfV4HkYiAMbFmfOM657jUqT8vBOpJBXLiDzCUatLpfUalXonYUqWhFhaUZcu7Gd4bhWNPEVadRcnOKIMuvTI9yHz3QCYDNEfSQ/r1CRtmyu2uPtnBarZNOdlnk4C9xwe/MeyKGBX24zw7PxpM0/drMgj8Nylu1ik7jA7Ko5SB24/yjLLcenwjGlLb+OUrnC2n7i0Ld9HWQLb4/ADvx+B63CH7jmSjpWp5QgSgFkiGnluEfGzLpzVIRwws9y+eMwPnvKby8EeputgdoHpIQCe3FnaBsCsA/EA4AnEA4AnEA8AnkA8AHgC8QDgCcQDgCcQDwCe+IlHXSVgy7IBeJg8ajab4RUGYrrh1riIN4AUjRmk7PoZLqkBQJHunqOEQ6GHwdo+tbNrOAF4UETStoG6/vOWc9Vzg3b3zCvXbNA83w2caXQ6FzrVIL0D9xNHPDH3HDHaWBzVYaZIJTpQEWr/jFRR3Jb7GhWc4B6S4p4jiAkhp2pLUi06zB20QydmLiTmHv346/k8Ej5w78hwzxG0R5ua74iIYBQIQECQtg2657iIiGR7OTQEAeCB48x5XPccmfC/iQppwLUGgIdN9EfSiHtOi/LBfIgfatkaZh0AWFCGDYAn0cgDABgZiAcATyAeADyBeADwBOIBwBOIBwBPIB4APIF4APAE4gHAE4gHAE8gHgA88RMP3HMAuCP3HBHfywrlzEt9p+pn2Tf2vQlUP6L3WgVgVG7fPUeO+7JEbfe27q/bVHqJG+yC2eLR588Ln4IzvgzscovWXvB52H0exz1jm+ftswJVliWW6CjSePqOdpzXug25ie8qXSZFGWlv5VJHPnv8Y6KajXzn9UhfxJ1HH59xtm28fU+rvSZ1lytUNJG0yO/VFtXmMLqqk0NCVI1ExQ5qmEAqzpznFtxzpBr1qk2NpPRM2psvUTWYRxWpJuI1Ua+54PSFB77c03TfRK46RfuZW85TS7apFHSDyvyJ4DhkouvhNke8pjIrkeiq01EWtxsVRbxfwvkHJHP77jm9i3BOFaFDl1fmqYIHdRBpGhypOpRbqvJANiI/Dedmcb+5fuQu2/w9nOM0PvbN80HkDt3F85MwKipBw/kHJHP77jkLT1LO5EXKz3fpIikqCeeXLMqQ4rpbIs7DO/W4OsWznw1SvTQ42gbHfV/jXhXoCVYVQQJB2nYr7jkDqZmDSukuOd6ksJinXBC1ZB5lUiv7cFcJHdTcaOEk+Nz+WXrkEWTuEznu2h2sAoKZwJnz3IZ7zhHV1Zwo9huRmrwXqHnoCqBIq0GqyHMRji56Piap1+gupMWFHPV7VpKc9C2lRx5JMWl5K+UEAkCU6I+kt+Ce09h7xhNxFunAseNn+A61act8pkYFjgh2PibHkGX1Hbs/P9KWuSWidpf1vE3mdfmeE3l43nRyXqQab1NzOn79LN43GD2CFKbTPQc/XoIZwO/yHAAAxAOALzA9BMATRB4APIF4APAE4gHAE4gHAE8gHgA8gXgA8ATiAcATiAcAT25APFJqfVN+BHLsLNce2f7memUTAIzI3Dt79bB7BbFcmDnqIBz4rFSguhWpSVRp90unXXmg3BnMGHOui029l16NOXliBW0pxWwATCuPfqtQ+BQZtCmuMhG3GvEXkHKBxM8WYw45EmV2qDKvPmI+Q/yeeCYkV2lG28p23xG3HOuM0zmuE62XqWVLGdKccEzJg3X86RwPi5QADDInhW8REl1lqlRdcNxqpIBM9kv8rIsWTumjLW2uU9tsSUWccZa76nhqH+XplpxCishqgTPOGrXK4jlgYaFlOuGEjj8QDvBhTmybIvOdRBq0+yLqVjMSK1UeoE06CER1RLvB81xCxaZxxjl2iuBMtWd5YAFig2rLRM3jsFxO+TCY58OdcEKHHwB8mDt6oc/MSkRZk3ZJ0exAd1K1TCKmHXFic57AHqpPl+fmqaHT61PhcVLPMtx2BDjhgBskWKo+eiGGgGnONiwccfO0A/14xMgjZFhCJZOjvHX3NIiJR/erJAnGxLDyhN8JgRMOuEnC33kkxTKT+jjVxzwknQiyUR4x8qhUyfG/5lRrN9M8UZsSFtedOQ5P7lcXO9QamJccUSvmNbexHprHwwkH3DRzQVqjJtfmzBxzlWnsHSi7W/vZcjCzYOIONBHkNx/XvaZG+cQIEiLOOPtnBXU83a90IxAVLd1+tcI5D5xwwE2DMmwAPMG1bQB4AvEA4AnEA4AnEA8AnkA8AHgC8QDgCcQDgCcQDwCeQDwAeALxAOAJxAOAJw/72ragTLtPzf/VptK/dS6OBWAIj37cbH4KbnF7XneK0sbA1vvclIlHxIuAuWpOpC3xP1jtaY8GAMblDt1zRkN8CnS5hFPUdpqn2oR84ZKL7AAYzqB7jnGWcWtolJvNwomKSq5bjVRqHtCW43QjDjbGUCMSLULnGn2sNjUXKtpRR0WRBlWtw44bVRL6MkAsKlm3H8H2W0rMdZ+tE0/U0Ue1yX3eirQlTj3WUIT7LwYi5ZZfZAb3kkH3nNMGta9cw40qVZe00UbcrUYGqb41fEcPQH5PO9EMca5ZLBEdyjYp/ZZbwosNVfjaVp5Wn5Yod95KF45qp0JdFqzu0z61l3aibqWLNSq39Pb9M6LKpvSjQbvPxQVIi33QM07EVSMKjtui8qi+DeDBkOCeo0uhA8MN5YDTpgZPohtfdUfyJBjqXBNs023FX+cWwoHa76X7Jeh26o51FIvitEPFsnNCcLZLaXY/4qCTwmaNJdykenDcI9oex7cBPAgS3XNU/f8SRxx+Lmd/+siDWj59uE37H0scKVhsw+xxJ+Rc4wopiQFxnV9SP03gpxfE8h+NVNcfADTB7zwR9xzxJejJc52ytT+Ew0ilaZICiYgyPAEm4VyjIsViOTQDSWBAXJl2V2MQE6AyQQHAIfyRNOaec9TqUmm9RqWek345ZKVwE3OuCcxFYo6hm2/UvEaLq+bMcYxpYuuak3rj+hOu6InBYrgoAoCQ7J4j8ADqLhap6wxEtWxsP79OVLcT7cO6mfibW4tM0LlG0sqIm448yi09j5F2XjepsG637VD+dBL2uTzHiRy3TC3MeUCMjCsMZKnWMU1/4MiJY4sO8IMqCEi9tk1WsgpndQhHWNmlreXo3A+Awchjf3Sc0CUws4n7A6kGtyEBcWB6CIAnKEkAwBOIBwBPIB4APIF4APAE4gHAE4gHAE8gHgA8gXgA8ATiAcCTKXfPGbxMxvUomDSuP0Pod2BepnHTzkFgapl69xxtHmL7qG8OHPEomBBKOI4/w9rrNlHslvYAuEy3e05CWYRbGqCOFbQdixQp7ae9L99LjELSLv6Mf+/B9vV3rz+OlS5Ieyz2A/Wd5Pus0uVxm0r2tvcP+gLc2Waq3XMy4XRpZ7kbRiWOFKWXtuI01n4gvvR+HbU6VFx/l1j9Gv3eoUNP8ncfRo4q3MaBOpZEe/7+noWC4G6ZevecCHwW13U1pMutj8OIZEu2teg7dHmVo3ws7crs1+G2EaBUjroikhJsffLQxP4+Y8MR8jCMNEfHzaE+DWA6mXr3HOI9gxLsSKl4ny7P1QcCOj07qMWXrU5kyqgjc6SsfklZt0QEI6JwP44WTkm5pGrDXH1GZhxHHzBVBEvV0+ieo3EXDNxjDEaW4kLOsc89om21j4gojCQj9Ut5MLj+b24fzMNnVTKJlSdUuLrkFsCsEf7OM43uOano1Km47rjqcEq3utih1sC8I0zh0vtVpd230Ui6UbaR5Yha4uAz4rxE/i45E7XVcTft4oSFo9i6PZbeHkR2MFM8ajabppI0/ruGrAxpy1k7EY6uLjkrWDIIzGpZsNomv3+4FrXmNyR1DLNyJ2S/lj6km5Ck90f33bYe+W0opV+p7yvC76dx/1bx7+5+lj8nK2ss1shq21mXKsumLd/f1sCdA/ecW8WIZ5QfX8HUk3p5DtxzAMhmUDzyo56sKC216cCmOgCAAeCeA4AnuKoaAE8gHgA8gXgA8ATiAcATiAcATyAeADyBeADwBOIBwJMpFo9cYGlLCeSasFhdDgB3zNy7UUqe7xxdmzNamTMAtwPSNgA8MfU8YS1MpEbGqTUR95jVXpO6yxVdJ6O2UVg343zW1uRIabd1nBnltoRu2/2zOrWXVokO5fL96KX8kb7AfQbcEXO6LNnU7IgjzVJbOcFIqbEMfjetyy3nqaW21amjvACk3id8HfcKECsnVbKsbsue7EwTEGv7gFad4rNBgr5AOOCOcNI2nqCLI82p4+zS6kSMLiQa6NgipcmDryOOMhyJgkijnG1yVHqaNr8abLuxd0DNK/MigbBtAO6GgTlP0TjOqIeUJY9gNTUK4myTzaAbDgDTTEw8UptvUi37mFBaFHW2SSLuhlOkfEbaBsBd44hHHGmIKptD/NhGZXE1nOPwfKaW6GxjMW44K2HbyqDQPAdgGpmj5R1O0bSFk3iyKftXm7Zd54fJ8zaLxqZ/BY5o2UYi8ba36CRzzgPAXXMjZdhR+ygA7ie3/COpvszGRjX7wGU3YBZB5AHAE7jnAODJLadtANwfIB4APIF4APAE4gHAE4gHAE8gHgA8gXgA8ATiAcATiEeQWyqOeM9RACzT456jbqrl3KDXBxHBsFvcX4ebPj6YKRB5APBkOtxz5Izu3Ik6uHu1RKOX9lbs7t2udX/sseXzB7Tl3Bl7mFuPXN1t75bNxz0mqpVbpv/utrAvkb8LY4/v9oPg5POgmA73nMNt9Zm+Esiaue07D+KXJWrbsnAZ4CZlkoFc497ZUnH5vBTTrR139ADm99KFI06k+hb5ev8Wld1byG+Ww23cJ1reUv1OPv4GlYN+7FOTKrQ1EyaSYBI4adtduucMosqwz0/CW64ftqgzn1cRofFV19+YZLPGQ7xJ9UBcR7QtorCwkMN+N6idWc3K+wZlF7qUHDwcBuY8d+eek4CKbrY/kkoV6IlELx7g+x9LumTbZwLfu8hIrSQy2TZ3Mr3jBImCto9uWgfuPzHx3KV7ziA6pXT7ox1DBZVG8XtKROMuM8dOCNXHBfuMhbND+VPbHqdiGZHHzu1s//bPEHkeEo547tI9Z5DGh3Yw38hi7BROpX8VqgXzsw2qBRFD7K4c/7iVKpUyIo+cEPo9m/JVqbqEyPOQmBr3HD0vKlKNP68WKfj1s+MuVV6GfbE/ZLqp0vt1orqNjod1NWmX/qf3m+cpagHDHrdMrWDOI/Mfp83NPHXdyBM7/tGLOnXV308+v0V5n9QUzCzwMADAk1sWT/Q3FMsod1AYF9WH+AQev8OACYLIA4AncM8BwBNc2waAJxAPAJ5APAB4AvEA4AnEA4AnEA8AnkA8AHgC8QDgCcRzDaQE+6G47qiLcTO+q2yfGjOZW8J4GIQE/gH3ksFr6+7y+2pfiHj70kcpbx9yFbo3CdcXOv4TaQy75Eq2b9HBPR47g8y53gFS0HX/v3z4XcV7QUoKHt5tHd2/AT9wDaIXP2f+H0GdZewVyTfooBNxnlH/oOZsq1xz8tQ+K1CF+6H2O3eddNxjyZl0lS7PuvzZIvXPz4kWP9GJc+YOz5rmjYAjqp+t0pbyXihGj5PomiOVtmE1azxyuN8nGtF0haot6e6f/Sm1l76tXy9KPVAt/O5x0hyEIu9H29P9qnMbNdOms18msaiUFZHc9q+aVP+o3g0YaQzN+FXug3OeW3LQkT9ubUE70ajtjjuOpkglTgNkm4ik+pTFFDjpdKi47hok5qiy0FLbnr34E2pfFakc9EMqPImax8OHTuQ4MhDlb7HcDc/Sr9tUeplszKi+j+Ok016yEU0Lp/TRlpTzoOb/dp/z31aZqDjuRQPwYHYdhILPyfsV6lqXn0h7mtzyKtGh3l6XIsOhczPpZ40Kqj9mv9i/fUisX/zvs+qWf4w6hma8PCQmHv4D3oqDjpQ+84A+dP54qkqzRNWg7LpDJ8GZW6pct6NOOuaphiNCIA7tYhP0Q0qpebA27L4ufPbc4n60P9h23OOYv8WxM7BNtWsoTIv5Pkl9UO036SD4Lke063yvbDp0eZWjfBCdNdpZyPnbcnu7p3xCKYcC6Z8dBH8v+TeMlqrril1bjasGtnEVCvvJ+x03iZb45GNeWwacjfjvchD4N4wzhmabxNW223HQ6dJFZEA36KI3OFBCJKWw/RosqHNR/gfmH736tET0kQez3sQ4A0edPcM0bBDHz8Ag3yFyggjgqOWUjEvKogbMYp5ymW49WbAonteJzL+HG1lC7wTD+SX10/6dZJt5qonOeYL0Mt7P0wvqGruvOAPtx7ipMTRNJIjnthx0jI1UQJWeLAwOVo0Ih+cjQb84RTRbEpEI0ZMoplO2MLII7sDJEo4wKOZ0F6DogFQPO18YZ+CsPOG/jMsRbavjiYjCtNc9kyuuJVJDvJ/Sl6vLxL91vH35u4Tc3BiaJmLiuS0HHUnx+EzttqPShrT0SgaUE6k2y5mRRzhqdam0XqNSz0kvxkKnXpG5Fad5q4kuQPJ9UuYVxq0ndBLdoN3EeYRGImXuvJWQ1oQpnETWfmR+aVKl1jWSoYF+ck/XK7GordHtO/+26u9ink96DE0xA5Hnthx0jl7wRNJtZ+UyfeVF5dSFMN0qy1AaAg+G7mKRutcYUPK32HfbfZmPrOK5HL3Yp+aCa9Joo4REDtdlp0Z5E7nUnMK6F/HJRbarBYpghctNVfWig5rn8N/jWcQBSHvNhXMgH+L9TPoNyiDtR1yGiE4cz7qJjqEp5sbKsMPl4WucDa+FDLyb/LGRW3j7Xq0mXm/QglklccHgPiArQoUbXdXZoPJi2hwNPATun3jkxztOE+R3BnfZdXLYVEp+EwmXg8HDA+45AHhyb9M2AG4aiAcATyAeADyBeADwBOIBwBOIBwBPIB4APIF4APDk1sUj17w9FMcZcL+ZgHuOlO9Gr+qN1K8rwhr6iV0wKlchS5GVYaR+yz5ZV28DMAY35p6ja/P1MdVl/RF/gmuihENO8dk+tYdW+AAwWRLTNpVa2VoMN8UyF13qbVIkJhdJalcYVXabIpDG3gl1Usp55bL+oC1nf3n/3asNjmp2e8x4I1Iw1qDdvfBVUv/VexKp5p27Zcv3ifRZomhYrTnYh3AbAIPi4bN6svMJC2XAyUUKqPapecWJmTi5jJ0ObVDZcZyR27S7lYypDjBS9biY4uyS0n8p0BLXHXVTX35/1Boctw9rqgAs2T0HPDxi4slyPkl2chmFjbc1KiaWFrP4grmPLnt2SXeA0aIVuyWJCKGIhju3jIvbB+XwE7G1Ag+ZxLQt2fkk3ckliZxTzqv8zFIWCNwUK7rIEGPAAUb6oyOWEpGTXt6cc4s4/Jin4MGTIJ4s5xM548t7USeXJNwFgyzhqJU387l9pw5+dLSoO4tlk07dpHNLlsMPeGjExDOq84l/CucidkWh/5fYRGVEHofqqzdR4QZuOmM6tyhfstBosfpqK7DEteSWa8EcR21Pc/gBD46ByJPufJLi5CJnfnGrzFhtS+PohevWskX5iCliOo29FuUdg0G9bK1/R8p0blGupM5qG+9RP2OxmWNt0Yla/HDpn11S2RxHOdvgNyJgQBl2BtqUfNwfjcFDIXHBAAAwHIgHAE+QtgHgCSIPAJ5APAB4AvEA4AnEA4AnEA8AnkA8AHgC8QDgCcQDgCeTFY8q00alJXgYzNkrj+0jsbQZADDAjbnnAHDfSUzbIu4zCY4xEcebjDQtycUGgPvCoHjEfUaKvmwJ8+s2lRzHGBFEbUE70Kjtx5TsyRZzsbm7u2IDcDPExGPcZ46d26+f7tLJuXWM2aDaMlHz0KmmVNWZYSlzgBh2pHi1AXAfSEjbBg0uOr0+FR7b2NKli0gNvzjKJPgZsOieSVQaktoBMKskiGdQCGLU0f3KxpoCPYlEmQxHmcPt7NQOgBkmJh5tPFhcdyLFyi6tLnaopcw+jqh1nou602zWhjvKIIUD95BHheeff3r3Mk8nxn1GUH5qgQFheIcDi6y21Wx0Evta6ygjP5LaYykzdisX8VJ7FjpvAnAPQBk2AJ4kzHkAAKMA8QDgCcQDgCcQDwCeQDwAeALxAOAJxAOAJxAPAJ5APAB4AvEA4AnEA4AnNyMeuOiAB8Ctu+doX4P0O2krfwTU/oAZ4E7cc/pXRJX1hLikaofMcwCmnMG0zaRcu8b5Rt01Wr0XRqfg7tIK9y7Z8W1ClXa/jEWTj23qLJYH0rqN9Qp1z0TMIVEnH5sK6jaDtlT/0qMZADdBypynSCU6UJFIbhdffZqn9mvjgnMst413B3GN6Nhs4yh2qd4P2Xi7Q5VendYit2BvUP2sQKtuiqiiTodaH8xrRZWqC6EDT/28SDVlYXVE29IP3keOIKKjswMU24FbJUU8HTpx0rfG3nY4MA9bvNWwWabieV0JTHG6S7v2OfPE2lQl2E41PrSJlmtB9Kk+LbEA6pGKVRHZ7otQdEetoGXlj1DvVaj2ikXHbRzArBHcMiOutrmpWS3wIqg+LlC/5wzoCEWqxG2qXAYsrboRwQZIObdtOyjr1hwdN6mwXKJ2WhsA3BhE/x+liE9On56pvwAAAABJRU5ErkJggg==;" vertex="1" parent="1">
          <mxGeometry x="180" y="80" width="207" height="583" as="geometry" />
        </mxCell>
      </root>
    </mxGraphModel>
  </diagram>
</mxfile>
